<svg version="1.1" xmlns="http://www.w3.org/2000/svg" xmlns:xlink="http://www.w3.org/1999/xlink" x="0px" y="0px" xml:space="preserve">
	<g id="Layer_1">
		<path d="M11,100.601l52.868,590.797c296.06,100.448,496.957,0,496.957,0l35.686-590.797C266.088,0.152,11,100.601,11,100.601z
			 M285.315,284.445c33.944-14.138,66.244-27.59,100.432-41.83c14.029,33.616,27.631,66.201,41.953,100.514
			c-33.472,13.966-66.054,27.564-100.64,41.995C312.83,350.804,299.292,318.156,285.315,284.445z M410.932,532.901
			c-23.93-24.636-48.583-50.009-72.957-75.1c23.43-22.804,48.75-47.452,73.732-71.769c22.87,23.338,47.594,48.57,72.579,74.066
			C460.44,483.764,435.559,508.46,410.932,532.901z M522.227,165.57c-2.055,24.888-2.993,49.871-4.457,76.188
			c-205.624-20.089-344.228-4.998-344.228-4.998c3.587,39.987,6.935,78.895,10.603,117.773c3.961,41.992,8.746,83.917,11.983,125.961
			c0.794,10.34,5.29,16.018,12.896,21.108c27.965,18.713,59.657,27.373,91.997,34.33c2.062,0.445,4.109,0.95,5.935,1.374
			c2.635,23.336,1.143,24.297-20.214,22.703c-35.153-2.623-70.309-5.467-102.862-20.109c-14.264-6.415-27.858-14.984-40.414-24.372
			c-19.979-14.937-29.104-34.863-30.546-60.89c-3.132-56.573-9.562-112.961-14.583-169.428c-3.661-41.15-7.058-82.324-10.981-123.446
			c-0.783-8.209,4.163-10.055,9.894-10.945c30.797-4.791,61.522-11.826,92.5-13.3c59.243-2.816,118.732-4.82,177.944-2.576
			c47.664,1.804,95.072,10.359,142.593,15.922C519.034,151.892,523.043,155.717,522.227,165.57z"/>
	</g>
</svg>
