<?xml version="1.0" encoding="utf-8"?>
<!-- Generator: Adobe Illustrator 16.0.0, SVG Export Plug-In . SVG Version: 6.00 Build 0)  -->
<!DOCTYPE svg PUBLIC "-//W3C//DTD SVG 1.1//EN" "http://www.w3.org/Graphics/SVG/1.1/DTD/svg11.dtd">
<svg version="1.1" id="Layer_1" xmlns="http://www.w3.org/2000/svg" xmlns:xlink="http://www.w3.org/1999/xlink" x="0px" y="0px"
	 width="512px" height="512px" viewBox="0 0 512 512" enable-background="new 0 0 512 512" xml:space="preserve">
<g transform="translate(0.000000,512.000000) scale(0.100000,-0.100000)">
	<g>
		<g>
			<path d="M4790,2635c167.002,218.999,207.002,371.001,145.996,555c-38.994,116.001-60,155-116.992,215
				c-52.002,55-79.004,107.002-79.004,152.002c0,15,10,65.996,20.996,112.998c29.004,120,28.008,202.998-5.996,272.998
				c-35.996,78.003-87.998,118.003-242.998,194.004c-142.998,68.999-201.006,112.998-235,176.997
				C4259.003,4350,4255,4377.998,4250,4525c-5,160-7.002,172.998-32.998,227.002c-62.002,125.996-190,200-486.006,278.999
				c-63.994,16.997-126.992,36.997-140.996,43.999c-27.998,13.999-122.002,25-160,17.998c-75-12.998-167.002-55-314.004-142.998
				c-90-53.999-195-112.002-232.998-127.998c-260-114.004-515.996-145-883.999-106.001C1802.998,4737.001,1490,4740,1395,4721
				c-172.002-33.003-297.002-128.999-410-316.001c-143.999-237.998-188.999-297.998-291.001-390C450,3793.999,430,3761,422.002,3580
				c-3.003-83.999,1.997-143.999,26.997-295c63.003-395,60-541.001-15-686.001C425,2580,377.998,2509.003,330,2440
				c-145-207.998-172.998-282.998-172.998-465c0-94.004,6.997-140,46.997-319.004C265,1385.996,267.998,1337.002,240,1130
				c-28.999-212.002-35-327.002-20-404.004c37.998-191.992,182.002-325,416.001-385c145-36.992,357.998-71.992,491.001-80.996
				c191.997-12.998,221.997-30,285.996-155.996c36.001-70,60-79.004,217.002-78.008c212.002,2.002,358.999,28.008,750,134.004
				c117.998,32.002,245,65,282.002,74.004C2840,275,3392.001,380.996,3525,400c579.004,80.996,680.996,124.004,829.004,349.004
				c73.994,111.992,132.998,170,270.996,267.998c179.004,127.002,232.002,195.996,277.002,357.998
				c17.998,69.004,22.002,105.996,22.002,270c0,280-24.004,390.996-138.008,625C4690,2467.998,4690,2502.998,4790,2635z
				 M3845,2434.004c-45.996-95-127.002-145-340-212.002c-90.996-29.004-155.996-57.002-215-92.998
				c-105.996-65-122.998-72.002-260-109.004c-197.002-54.004-302.998-125-355-240.996c-25-58.008-27.002-68.008-25.996-206.006
				c0.996-115.996-2.002-152.002-16.006-180.996c-23.994-52.998-178.999-204.004-235.996-231.006
				c-85-40.996-114.004-38.994-208.003,12.002c-102.998,55-122.998,60-190,47.002c-71.997-14.004-111.001-35.996-356.997-197.998
				C1326.001,812.998,1197.998,755.996,1038.999,755c-78.999,0-91.001,2.998-161.001,37.998
				C798.999,832.002,725,900,658.999,995.996l-31.001,46.006L638.999,1135c23.999,207.002,13.999,334.004-52.998,625
				c-38.999,167.998-45,259.004-21.001,315.996c7.998,20,51.001,87.002,96.001,150C906.001,2575,935,2762.998,835,3367.998
				C798.999,3588.999,797.002,3576,882.998,3651c196.001,170,241.001,225,422.002,522.998
				c66.001,108.003,98.999,143.999,146.001,156.001c57.998,16.001,311.997,12.998,488.999-6.001
				C2476.001,4267.998,2880.996,4345,3250,4571C3297.002,4600,3364.003,4640,3400,4660l64.004,37.002l70.996-19.004
				c37.998-10.996,107.998-30.996,155-43.999c47.002-12.998,90-31.001,97.002-40c28.994-40,57.002-263.999,50-398.999
				c-2.998-55-16.006-145-27.002-200c-25-113.999-22.998-170,12.002-297.998C3855,3576,3852.998,3418.999,3815.996,3230
				c-36.992-192.002-33.994-283.999,18.008-460C3882.001,2607.998,3885,2515.996,3845,2434.004z"/>
			<path d="M3215.996,3532.998c-92.998,71.001-106.992,108.003-85.996,240c24.004,159.004-29.004,227.002-152.998,196.001
				c-67.002-16.001-179.004-73.999-294.004-151.001c-95.996-65-122.998-77.998-198.999-95.996c-120-30-141.997-45-183.999-127.002
				c-32.002-62.998-35-75-33.999-153.999c0-77.002,5-97.002,45-196.001L2355,3135v-195c1.001-198.999,6.001-232.002,42.998-273.999
				c50-53.999,162.998-67.002,240-27.002c24.004,12.002,95,72.002,157.998,132.002c121.006,116.001,239.004,200,338.008,240
				c61.992,25,105.996,66.997,105.996,101.001c0,11.997-14.004,42.998-30.996,70c-38.008,58.999-36.006,93.999,11.992,170.996
				c20,32.002,34.004,70,37.002,98.003C3262.002,3496,3260.996,3497.998,3215.996,3532.998z"/>
			<path d="M1815,2477.001c-45,25-52.998,40-53.999,103.999c-1.001,56.001-18.999,75-83.003,83.999
				C1625,2672.998,1598.999,2696,1575,2755c-38.999,93.999-98.999,112.998-156.001,47.998c-17.998-20.996-53.999-83.999-81.001-140
				C1310,2603.999,1270,2539.003,1245,2510c-53.999-60.996-61.001-84.004-45-152.002c12.998-55,38.999-85.996,157.998-185
				c31.001-27.002,68.003-73.994,97.002-122.998c68.999-117.998,120-144.004,192.002-100c45,27.002,58.999,52.002,87.998,165
				c28.999,115.996,55,180.996,97.002,247.002C1870,2422.002,1866.001,2447.998,1815,2477.001z"/>
		</g>
	</g>
</g>
</svg>
